<?xml version="1.0" standalone="no"?>
<!DOCTYPE svg PUBLIC "-//W3C//DTD SVG 20010904//EN"
 "http://www.w3.org/TR/2001/REC-SVG-20010904/DTD/svg10.dtd">
<svg version="1.0" xmlns="http://www.w3.org/2000/svg"
 width="512.000000pt" height="512.000000pt" viewBox="0 0 512.000000 512.000000"
 preserveAspectRatio="xMidYMid meet">
<metadata>
Created by potrace 1.11, written by Peter Selinger 2001-2013
</metadata>
<g transform="translate(0.000000,512.000000) scale(0.100000,-0.100000)"
fill="#000000" stroke="none">
<path d="M0 2560 l0 -2560 2560 0 2560 0 0 2560 0 2560 -2560 0 -2560 0 0
-2560z m3098 2181 c68 -20 71 -32 72 -261 l0 -205 -25 -28 c-14 -15 -27 -28
-28 -28 -1 -1 -65 -4 -142 -8 l-140 -6 -3 -146 -3 -147 98 -22 c273 -63 479
-156 681 -308 l73 -56 128 128 c122 122 131 128 175 133 l47 6 150 -149 c199
-200 199 -178 4 -373 l-144 -146 28 -45 c106 -171 183 -368 228 -580 24 -113
27 -145 27 -340 0 -195 -3 -227 -27 -341 -15 -70 -38 -158 -52 -197 -14 -38
-25 -74 -25 -80 0 -15 -117 -258 -140 -291 -9 -14 -37 -55 -60 -91 -61 -92
-216 -265 -296 -330 -37 -30 -75 -63 -85 -72 -36 -34 -216 -145 -299 -185
-178 -85 -256 -111 -440 -149 -390 -80 -781 -25 -1155 164 -73 37 -80 41 -184
112 -69 46 -68 46 -179 140 -88 75 -245 256 -307 354 -115 181 -210 417 -256
636 -29 142 -38 435 -16 565 30 171 39 211 84 340 54 155 94 236 198 407 34
56 143 186 220 263 242 244 542 408 888 485 l98 22 -3 147 -3 146 -135 6 c-74
3 -143 9 -152 13 -43 19 -48 45 -48 258 0 224 4 239 65 257 41 12 1041 14
1083 2z"/>
<path d="M2350 3243 c-8 -3 -25 -15 -37 -26 l-23 -20 0 -698 0 -697 31 -26 31
-26 208 0 208 0 31 26 31 26 0 693 0 694 -24 28 -24 28 -209 2 c-114 1 -215
-1 -223 -4z"/>
</g>
</svg>
